# xmcd
#
# Track frame offsets: 
#        150
#        29523
#        65571
#        100644
#        123342
#        166065
#        194088
#        210261
#        235059
#        265482
#        294930
#
# Disc length: 4402 seconds
#
# Revision: 0
# Processed by: cddbd v1.5.2PL0 Copyright (c) Steve Scherf et al.
# Submitted via: ExactAudioCopy v1.0b3
#
DISCID=9811300b
DTITLE=Delta Five Blues Band - Live At Robusto's
DYEAR=1900
DGENRE=Blues
TTITLE0=1Rock Me
TTITLE1=2 Scratch My Back Pretty Baby
TTITLE2=3 Mannish Boy
TTITLE3=4 Shake Rattle And Roll
TTITLE4=5 Merry Go Round
TTITLE5=6 Dressed Up And Ready To Go
TTITLE6=7 Snatch It Back
TTITLE7=8 Whos Been Talkin
TTITLE8=9 Im In The Mood
TTITLE9=10 Buzz Me
TTITLE10=11 Wang Dang Doodle
EXTD=
EXTT0=
EXTT1=
EXTT2=
EXTT3=
EXTT4=
EXTT5=
EXTT6=
EXTT7=
EXTT8=
EXTT9=
EXTT10=
PLAYORDER=
